<svg version="1.1" viewBox="0.0 0.0 96.0 96.0" fill="none" stroke="none" stroke-linecap="square" stroke-miterlimit="10" xmlns:xlink="http://www.w3.org/1999/xlink" xmlns="http://www.w3.org/2000/svg"><clipPath id="p.0"><path d="m0 0l96.0 0l0 96.0l-96.0 0l0 -96.0z" clip-rule="nonzero"/></clipPath><g clip-path="url(#p.0)"><path fill="#000000" fill-opacity="0.0" d="m0 0l96.0 0l0 96.0l-96.0 0z" fill-rule="evenodd"/><path fill="#000000" d="m4.345386 48.0l35.936615 -7.7169304l7.7169266 -35.936615l7.7169304 35.936615l35.936615 7.7169304l-35.936615 7.7169304l-7.7169304 35.93661l-7.7169266 -35.93661z" fill-rule="evenodd"/><path stroke="#000000" stroke-width="1.0" stroke-linejoin="round" stroke-linecap="butt" d="m4.345386 48.0l35.936615 -7.7169304l7.7169266 -35.936615l7.7169304 35.936615l35.936615 7.7169304l-35.936615 7.7169304l-7.7169304 35.93661l-7.7169266 -35.93661z" fill-rule="evenodd"/><path fill="#000000" d="m26.299128 69.69948l14.028402 -21.70079l-14.028402 -21.700787l21.700788 14.0284l21.70079 -14.0284l-14.028404 21.700787l14.028404 21.70079l-21.70079 -14.028404z" fill-rule="evenodd"/><path stroke="#000000" stroke-width="1.0" stroke-linejoin="round" stroke-linecap="butt" d="m26.299128 69.69948l14.028402 -21.70079l-14.028402 -21.700787l21.700788 14.0284l21.70079 -14.0284l-14.028404 21.700787l14.028404 21.70079l-21.70079 -14.028404z" fill-rule="evenodd"/></g></svg>